<?xml version="1.0" standalone="no"?>
<!DOCTYPE svg PUBLIC "-//W3C//DTD SVG 20010904//EN"
 "http://www.w3.org/TR/2001/REC-SVG-20010904/DTD/svg10.dtd">
<svg version="1.0" xmlns="http://www.w3.org/2000/svg"
 width="175.000000pt" height="104.000000pt" viewBox="0 0 175.000000 104.000000"
 preserveAspectRatio="xMidYMid meet">
<metadata>
Created by potrace 1.15, written by Peter Selinger 2001-2017
</metadata>
<g transform="translate(0.000000,104.000000) scale(0.100000,-0.100000)"
fill="#000000" stroke="none">
<path d="M1125 1024 c-45 -17 -346 -223 -353 -242 -2 -8 9 -12 35 -12 21 0 51
-7 67 -15 30 -16 30 -15 162 74 151 102 184 113 252 85 65 -27 104 -80 109
-146 6 -85 -17 -114 -191 -234 -82 -57 -153 -101 -158 -98 -4 3 -8 0 -8 -5 0
-7 -26 -11 -65 -11 -49 0 -67 4 -71 15 -4 8 -12 15 -19 15 -21 0 -55 49 -68
97 l-11 43 -59 0 -59 0 7 -42 c10 -67 55 -148 102 -184 23 -18 39 -35 36 -38
-4 -3 0 -6 8 -6 8 0 56 -5 108 -10 89 -10 97 -9 145 13 28 13 117 70 197 125
164 113 200 154 220 250 29 138 -61 296 -189 332 -52 14 -150 11 -197 -6z"/>
<path d="M658 725 c-37 -14 -254 -157 -333 -221 -88 -69 -127 -204 -91 -312
22 -66 87 -139 151 -168 59 -28 159 -32 222 -10 54 19 357 229 361 250 3 13
-5 16 -36 16 -21 0 -53 5 -69 11 -29 9 -38 5 -148 -72 -145 -100 -174 -113
-233 -104 -50 7 -112 57 -132 105 -17 40 -8 125 17 158 11 15 89 75 174 134
154 107 154 107 215 107 63 1 76 -5 132 -61 24 -24 44 -81 36 -102 -3 -7 5
-11 23 -10 16 0 44 2 64 2 l36 2 -8 49 c-4 27 -16 66 -27 88 -21 40 -103 123
-122 123 -6 0 -9 4 -6 9 14 23 -168 27 -226 6z"/>
</g>
</svg>
