<?xml version="1.0" standalone="no"?>
<!DOCTYPE svg PUBLIC "-//W3C//DTD SVG 20010904//EN"
 "http://www.w3.org/TR/2001/REC-SVG-20010904/DTD/svg10.dtd">
<svg version="1.0" xmlns="http://www.w3.org/2000/svg"
 width="175.000000pt" height="104.000000pt" viewBox="0 0 175.000000 104.000000"
 preserveAspectRatio="xMidYMid meet">
<metadata>
Created by potrace 1.15, written by Peter Selinger 2001-2017
</metadata>
<g transform="translate(0.000000,104.000000) scale(0.100000,-0.100000)"
fill="#000000" stroke="none">
<path d="M1055 987 c-86 -34 -148 -98 -175 -180 -17 -53 -9 -172 15 -222 25
-50 79 -105 130 -130 37 -18 61 -20 285 -20 274 0 288 3 360 75 59 59 75 102
75 205 0 103 -16 146 -75 205 -71 71 -87 75 -350 77 -163 1 -244 -2 -265 -10z
m434 -106 c151 -30 193 -212 70 -304 -38 -28 -96 -36 -249 -36 -153 0 -211 8
-249 36 -121 90 -81 275 66 303 53 11 309 11 362 1z"/>
<path d="M430 771 c-46 -18 -293 -183 -343 -230 -55 -50 -80 -107 -85 -192 -4
-74 -2 -84 28 -145 33 -68 85 -116 153 -141 52 -19 166 -15 214 6 69 32 319
209 357 253 96 111 88 278 -18 384 -82 81 -202 107 -306 65z m191 -124 c52
-35 79 -82 79 -139 0 -88 -20 -111 -218 -246 -157 -107 -193 -118 -267 -82
-103 50 -132 172 -60 258 22 26 232 176 299 214 46 26 125 23 167 -5z"/>
</g>
</svg>
